<?xml version="1.0" standalone="no"?><!DOCTYPE svg PUBLIC "-//W3C//DTD SVG 1.1//EN" "http://www.w3.org/Graphics/SVG/1.1/DTD/svg11.dtd"><svg t="1774097533100" class="icon" viewBox="0 0 1024 1024" version="1.1" xmlns="http://www.w3.org/2000/svg" p-id="6349" xmlns:xlink="http://www.w3.org/1999/xlink" width="200" height="200"><path d="M589.137333 511.326665l351.143429-351.159802c21.563108-21.529339 21.563108-56.471153 0-78.034261-21.563108-21.562085-56.43943-21.562085-78.002538 0L511.114328 433.29752 159.978063 82.132602c-21.530362-21.528316-56.501852-21.528316-78.06803 0-21.528316 21.563108-21.528316 56.504922 0 78.034261l351.174128 351.159802L81.911056 862.500792c-21.528316 21.565155-21.528316 56.43943 0 78.003562 21.565155 21.563108 56.537667 21.563108 78.06803 0L511.114328 589.352739 862.279247 940.503331c21.562085 21.563108 56.438407 21.563108 78.002538 0s21.563108-56.437383 0-78.003562L589.137333 511.326665z" fill="#272636" p-id="6350"></path></svg>